<!DOCTYPE svg PUBLIC "-//W3C//DTD SVG 1.1//EN" "http://www.w3.org/Graphics/SVG/1.1/DTD/svg11.dtd">
<!-- Uploaded to: SVG Repo, www.svgrepo.com, Transformed by: SVG Repo Mixer Tools -->
<svg height="800px" width="800px" version="1.1" id="Layer_1" xmlns="http://www.w3.org/2000/svg" xmlns:xlink="http://www.w3.org/1999/xlink" viewBox="0 0 260 260" xml:space="preserve" fill="#000000">
<g id="SVGRepo_bgCarrier" stroke-width="0"/>
<g id="SVGRepo_tracerCarrier" stroke-linecap="round" stroke-linejoin="round"/>
<g id="SVGRepo_iconCarrier"> <g id="XMLID_886_"> <g id="XMLID_887_"> <ellipse id="XMLID_888_" style="fill:#ffd966;" cx="130" cy="150" rx="130" ry="110"/> <path id="XMLID_889_" style="fill:#f1c232;" d="M130,260C58.203,260,0,210.751,0,150S58.203,40,130,40"/> </g> <path id="XMLID_17_" style="fill:#91DC5A;" d="M30.011,55.662C55.9,76.918,91.149,90,130,90s74.1-13.082,99.989-34.338 c0.002-0.002,0.011-0.015,0.011-0.015s-33.533-21.398-66.35-14.71C152.322,16.806,130,0,130,0s-22.647,16.272-33.896,40.891 C63.366,34.36,30,55.646,30,55.646S30.009,55.659,30.011,55.662z"/> <path id="XMLID_890_" style="fill:#64C37D;" d="M130,0c0,0-22.647,16.272-33.896,40.891C63.366,34.36,30,55.646,30,55.646 s0.009,0.013,0.011,0.015C55.9,76.918,91.149,90,130,90C130,55.667,130,0,130,0z"/> <ellipse id="XMLID_891_" style="fill:#4B905E;" cx="130" cy="60" rx="20" ry="10"/> </g> </g>
</svg>